<?xml version="1.0" standalone="no"?>
<!DOCTYPE svg PUBLIC "-//W3C//DTD SVG 20010904//EN"
 "http://www.w3.org/TR/2001/REC-SVG-20010904/DTD/svg10.dtd">
<svg version="1.0" xmlns="http://www.w3.org/2000/svg"
 width="600.000000pt" height="600.000000pt" viewBox="0 0 600.000000 600.000000"
 preserveAspectRatio="xMidYMid meet">
<metadata>
Created by potrace 1.11, written by Peter Selinger 2001-2013
</metadata>
<g transform="translate(0.000000,600.000000) scale(0.100000,-0.100000)"
fill="#000000" stroke="none">
<path d="M2865 5674 c-602 -44 -1063 -218 -1525 -575 -109 -84 -328 -299 -417
-409 -280 -348 -469 -756 -552 -1190 -34 -175 -44 -296 -44 -500 0 -107 5
-240 12 -295 74 -619 334 -1159 766 -1591 147 -148 232 -218 390 -326 363
-247 761 -395 1210 -449 129 -16 461 -16 590 0 622 74 1159 334 1596 770 436
437 696 974 770 1596 7 55 12 188 12 295 0 204 -10 325 -44 500 -135 707 -545
1325 -1149 1730 -345 231 -761 383 -1175 429 -103 12 -365 21 -440 15z m660
-2179 c-1 -705 -7 -865 -40 -1047 -48 -261 -174 -442 -375 -542 -118 -58 -216
-83 -386 -98 -144 -13 -293 -3 -409 27 -74 19 -245 101 -245 118 1 16 127 517
132 522 2 2 26 -6 53 -19 91 -43 203 -69 300 -70 220 -2 290 74 315 339 6 62
10 406 10 793 l0 682 323 -2 322 -3 0 -700z"/>
</g>
</svg>
